<svg width="64" height="64" xmlns="http://www.w3.org/2000/svg">

 <g>
  <title>background</title>
  <rect fill="none" id="canvas_background" height="402" width="582" y="-1" x="-1"/>
 </g>
 <g>
  <title>Layer 1</title>
  <polygon fill="#ffffff" id="svg_2" points="32.001,36.765 35.499,36.765 35.169,40.45 32.001,41.306 31.996,41.308 28.831,40.452 28.62,38.084 25.768,38.084    26.174,42.649 31.995,44.264 32,44.263 37.826,42.649 38.604,33.922 32,33.922 28.248,33.922 27.988,31.012 32,31.012    38.862,31.012 39.117,28.171 32,28.171 24.883,28.171 25.65,36.765  "/>
  <path fill="#ffffff" id="svg_3" d="m32,7.174c-13.689,0 -24.826,11.137 -24.826,24.826c0,13.689 11.137,24.826 24.826,24.826c13.689,0 24.826,-11.137 24.826,-24.826c0,-13.689 -11.137,-24.826 -24.826,-24.826zm5.777,10.043l1.444,0l0,2.894l2.032,0l0,1.427l-3.477,0l0,-4.321l0.001,0zm-5.582,0l1.506,0l0.926,1.521l0.926,-1.521l1.506,0l0,4.321l-1.439,0l0,-2.141l-0.993,1.535l-0.024,0l-0.994,-1.535l0,2.141l-1.413,0l0,-4.321l-0.001,0zm-4.619,0l3.985,0l0,1.434l-1.271,0l0,2.888l-1.445,0l0,-2.889l-1.269,0l0,-1.433zm-4.839,0l1.444,0l0,1.428l1.321,0l0,-1.428l1.444,0l0,4.321l-1.444,0l0,-1.447l-1.321,0l0,1.447l-1.444,0l0,-4.321zm18.537,29.387l-9.28,2.573l-9.272,-2.573l-2.066,-23.17l22.689,0l-2.071,23.17z"/>
 </g>
</svg>